<svg id="Layer_1" data-name="Layer 1" xmlns="http://www.w3.org/2000/svg" xmlns:xlink="http://www.w3.org/1999/xlink" viewBox="0 0 432 283.69"><defs><style>.cls-1{fill:url(#linear-gradient);}.cls-2{fill:#59b;}.cls-3{fill:url(#linear-gradient-2);}.cls-4{fill:url(#linear-gradient-3);}</style><linearGradient id="linear-gradient" x1="67.69" y1="146.63" x2="67.69" y2="304.44" gradientUnits="userSpaceOnUse"><stop offset="0" stop-color="#00466b"/><stop offset="0.03" stop-color="#064c70"/><stop offset="0.2" stop-color="#286d91"/><stop offset="0.37" stop-color="#4185a8"/><stop offset="0.52" stop-color="#5094b6"/><stop offset="0.64" stop-color="#59b"/></linearGradient><linearGradient id="linear-gradient-2" x1="379.82" y1="145.79" x2="379.82" y2="304.09" href="#linear-gradient"/><linearGradient id="linear-gradient-3" x1="228.88" y1="241.38" x2="228.88" y2="81.23" href="#linear-gradient"/></defs><title>RTC_RGB</title><g id="_Group_" data-name="lt;Group&gt;"><path id="_Path_" data-name="lt;Path&gt;" class="cls-1" d="M18,195.86v108H80.47V181.68a37,37,0,0,1,36.91-36.91H69.17A51.22,51.22,0,0,0,18,195.86Z" transform="translate(-18 -20.15)"/></g><path id="_Path_2" data-name="lt;Path&gt;" class="cls-2" d="M117.38,82.31A99.49,99.49,0,0,0,18,181.69v14.17a51.22,51.22,0,0,1,51.17-51.08h69.88V82.31H117.38Z" transform="translate(-18 -20.15)"/><path id="_Path_3" data-name="lt;Path&gt;" class="cls-3" d="M409,241.38a37,37,0,0,1-36.91-36.91V181.68A37,37,0,0,1,409,144.77H360.82a51.22,51.22,0,0,0-51.17,51.08v8.61A99.49,99.49,0,0,0,409,303.85h41V241.38H409Z" transform="translate(-18 -20.15)"/><path id="_Path_4" data-name="lt;Path&gt;" class="cls-2" d="M409,82.31a99.49,99.49,0,0,0-99.38,99.38v14.17a51.22,51.22,0,0,1,51.17-51.08H450V82.31H409Z" transform="translate(-18 -20.15)"/><g id="_Group_2" data-name="lt;Group&gt;"><path id="_Path_5" data-name="lt;Path&gt;" class="cls-4" d="M232.36,82.31V20.15H169.89V190.29a51.22,51.22,0,0,0,51.17,51.08h48.21a37,37,0,0,1-36.91-36.91V144.77h55.51V82.31H232.36Z" transform="translate(-18 -20.15)"/></g><path id="_Path_6" data-name="lt;Path&gt;" class="cls-2" d="M269.27,303.85a99.49,99.49,0,0,1-99.38-99.38V190.29a51.22,51.22,0,0,0,51.17,51.08h66.8v62.47H269.27Z" transform="translate(-18 -20.15)"/></svg>